<svg xmlns="http://www.w3.org/2000/svg" width="50" height="50" viewBox="0 0 50 50">
  <defs>
    <radialGradient id="a" cx="0%" cy="17.302%" r="84.462%" fx="0%" fy="17.302%">
      <stop stop-color="#2E65BC" offset="0%"/>
      <stop stop-color="#153587" offset="100%"/>
    </radialGradient>
    <linearGradient id="b" x1="50%" x2="50%" y1="0%" y2="100%">
      <stop stop-color="#09BBF0" offset="0%"/>
      <stop stop-color="#0486DC" offset="100%"/>
    </linearGradient>
  </defs>
  <g fill="none" fill-rule="evenodd">
    <path fill="#2DC7FF" d="M6,41 L6,49.2303733 C6,49.6554667 6.34144,50 6.76333714,50 L49.23616,50 C49.6580571,50 50,49.6554667 50,49.2303733 L50,12.7696267 C50,12.3445333 49.6580571,12 49.23616,12 L42.0002008,12 L42.0002008,40.1604073 C42.0002008,40.6241455 41.658258,41 41.2363608,41 L6,41 Z"/>
    <path fill="#0486DC" d="M50,18 L6,18 L6,12.957856 C6,12.4287966 6.34194286,12 6.76384,12 L49.23616,12 C49.6580571,12 50,12.4287966 50,12.957856 L50,18 Z"/>
    <rect width="2" height="2" x="46" y="14" fill="#FFFFFF"/>
    <path fill="url(#a)" d="M43.2363608,42 L0.763537955,42 C0.341640813,42 0.000200812501,41.6241455 0.000200812501,41.1604073 L0.000200812501,4 L44.0002008,4 L44.0002008,41.1604073 C44.0002008,41.6241455 43.658258,42 43.2363608,42"/>
    <path fill="#2DC7FF" d="M44,4 L0,4 L0,0.656864865 C0,0.294054054 0.341942857,0 0.76384,0 L43.23616,0 C43.6580571,0 44,0.294054054 44,0.656864865 L44,4 Z"/>
    <path fill="#FFFFFF" d="M3.25261422 3C2.70071405 3 2.25261422 2.55234043 2.25261422 1.99971631 2.25261422 1.44765957 2.70071405 1 3.25261422 1 3.8050816 1 4.25261422 1.44765957 4.25261422 1.99971631 4.25261422 2.55234043 3.8050816 3 3.25261422 3M6.39025933 3C5.83835916 3 5.39025933 2.55234043 5.39025933 1.99971631 5.39025933 1.44765957 5.83835916 1 6.39025933 1 6.94272671 1 7.39025933 1.44765957 7.39025933 1.99971631 7.39025933 2.55234043 6.94272671 3 6.39025933 3M9.52795464 3C8.97605447 3 8.52795464 2.55234043 8.52795464 1.99971631 8.52795464 1.44765957 8.97605447 1 9.52795464 1 10.080422 1 10.5279546 1.44765957 10.5279546 1.99971631 10.5279546 2.55234043 10.080422 3 9.52795464 3"/>
    <polygon fill="#0486DC" points="10 24 15 24 15 16 10 16"/>
    <polygon fill="#0486DC" points="30 36 34 36 34 27 30 27"/>
    <polygon fill="#2154CF" points="18 24 34 24 34 16 18 16"/>
    <polygon fill="#2154CF" points="10 36 27 36 27 27 10 27"/>
    <polygon fill="url(#b)" points="10 13 34 13 34 9 10 9"/>
  </g>
</svg>
