<svg xmlns="http://www.w3.org/2000/svg" width="50" height="50" viewBox="0 0 50 50">
  <defs>
    <linearGradient id="a" x1="-17.815%" y1="50%" y2="50%">
      <stop stop-color="#5CE6FF" offset="0%"/>
      <stop stop-color="#2FC8FF" offset="100%"/>
    </linearGradient>
    <linearGradient id="b" x1="-16.831%" y1="37.803%" y2="37.803%">
      <stop stop-color="#418EEA" offset="0%"/>
      <stop stop-color="#1F55D0" offset="100%"/>
    </linearGradient>
    <linearGradient id="c" x1="-21.89%" y1="65.704%" y2="50%">
      <stop stop-color="#2C66BE" offset="0%"/>
      <stop stop-color="#143689" offset="100%"/>
    </linearGradient>
  </defs>
  <g fill="none" fill-rule="evenodd">
    <path fill="url(#a)" d="M36.247296 25L49.752704 25C49.889344 25 50 25.1106914 50 25.2473752L50 38.7526248C50 38.8893086 49.889344 39 49.752704 39L36.247296 39C36.110656 39 36 38.8893086 36 38.7526248L36 25.2473752C36 25.1106914 36.110656 25 36.247296 25M.000103201586 44L.000103201586 6C4.63120023 6 23.6729979 6 28.0001032 6L28.0001032 44"/>
    <path fill="url(#b)" d="M28.0000516 6L.0000516007894 6 .0000516007894 2.97456C.0000516007894 1.332 1.43087089 0 3.1952902 0L24.804813 0C26.5692323 0 28.0000516 1.332 28.0000516 2.97456L28.0000516 6zM0 44L28 44 28 47.02544C28 48.668 26.5691807 50 24.8047614 50L3.1952386 50C1.43081929 50 0 48.668 0 47.02544L0 44zM3.26508724 24L5.73491276 24C5.88138306 24 6 24.1186739 6 24.2652146L6 26.7347854C6 26.8813261 5.88138306 27 5.73491276 27L3.26508724 27C3.11861694 27 3 26.8813261 3 26.7347854L3 24.2652146C3 24.1186739 3.11861694 24 3.26508724 24"/>
    <path fill="#0486DC" d="M41.3534497,18 L44.6465503,18 C44.8418441,18 45,18.1582319 45,18.3536195 L45,21.6463805 C45,21.8417681 44.8418441,22 44.6465503,22 L41.3534497,22 C41.1581559,22 41,21.8417681 41,21.6463805 L41,18.3536195 C41,18.1582319 41.1581559,18 41.3534497,18"/>
    <path fill="url(#a)" d="M31.3091942,7 L37.6908058,7 C37.8616468,7 38,7.13841966 38,7.30934273 L38,13.6906573 C38,13.8615803 37.8616468,14 37.6908058,14 L31.3091942,14 C31.1383532,14 31,13.8615803 31,13.6906573 L31,7.30934273 C31,7.13841966 31.1383532,7 31.3091942,7"/>
    <path fill="url(#b)" d="M9.26496 21L17.73504 21C17.88144 21 18 21.118598 18 21.2650448L18 29.7349552C18 29.881402 17.88144 30 17.73504 30L9.26496 30C9.11856 30 9 29.881402 9 29.7349552L9 21.2650448C9 21.118598 9.11856 21 9.26496 21M49.73504 6C49.88144 6 50 6.11859795 50 6.26504481L50 14.7349552C50 14.881402 49.88144 15 49.73504 15L41.26496 15C41.11856 15 41 14.881402 41 14.7349552L41 6.26504481C41 6.11859795 41.11856 6 41.26496 6L49.73504 6z"/>
    <path fill="url(#c)" d="M21.300288,17 L37.699712,17 C37.865632,17 38,17.134411 38,17.3003841 L38,33.6996159 C38,33.865589 37.865632,34 37.699712,34 L21.300288,34 C21.134368,34 21,33.865589 21,33.6996159 L21,17.3003841 C21,17.134411 21.134368,17 21.300288,17"/>
    <path fill="#FFFFFF" d="M14.6009216,4 C14.0490214,4 13.6009216,3.55234043 13.6009216,2.99971631 C13.6009216,2.44765957 14.0490214,2 14.6009216,2 C15.153389,2 15.6009216,2.44765957 15.6009216,2.99971631 C15.6009216,3.55234043 15.153389,4 14.6009216,4"/>
  </g>
</svg>
