<svg xmlns="http://www.w3.org/2000/svg" width="50" height="50" viewBox="0 0 50 50">
  <defs>
    <radialGradient id="a" cx="0%" cy="0%" r="59.615%" fx="0%" fy="0%">
      <stop stop-color="#59E6FF" offset="0%"/>
      <stop stop-color="#2DC7FF" offset="100%"/>
    </radialGradient>
    <linearGradient id="b" x1="0%" y1="0%" y2="100%">
      <stop stop-color="#458DEA" offset="0%"/>
      <stop stop-color="#2154CF" offset="100%"/>
    </linearGradient>
    <linearGradient id="c" x1="-21.89%" y1="65.704%" y2="50%">
      <stop stop-color="#2C66BE" offset="0%"/>
      <stop stop-color="#143689" offset="100%"/>
    </linearGradient>
    <linearGradient id="d" x1="-17.815%" y1="50%" y2="50%">
      <stop stop-color="#5CE6FF" offset="0%"/>
      <stop stop-color="#2FC8FF" offset="100%"/>
    </linearGradient>
  </defs>
  <g fill="none" fill-rule="evenodd">
    <path fill="url(#a)" d="M40.4761455,44 L6.52334545,44 C6.23418182,44 6,43.7681829 6,43.48256 L6,0.856868571 C6,0.38368 6.38792727,0 6.86698182,0 L40.1325091,0 C40.6115636,0 41,0.38368 41,0.856868571 L41,43.48256 C41,43.7681829 40.7653091,44 40.4761455,44"/>
    <path fill="url(#b)" d="M49.7288695,28 L9.27148206,28 C9.12161185,28 9,27.876608 9,27.725056 L9,12.274944 C9,12.123392 9.12161185,12 9.27148206,12 L49.7288695,12 C49.8787398,12 49.999847,12.123392 49.999847,12.274944 L49.999847,27.725056 C49.999847,27.876608 49.8787398,28 49.7288695,28"/>
    <path fill="url(#c)" d="M27.4253486,50 L1.57398281,50 C0.704760726,50 0,49.300096 0,48.436352 L0,35.563648 C0,34.699904 0.704760726,34 1.57398281,34 L27.4253486,34 C28.2950863,34 28.999847,34.699904 28.999847,35.563648 L28.999847,48.436352 C28.999847,49.300096 28.2950863,50 27.4253486,50"/>
    <path fill="#09A6E8" d="M18,42 C18,44.20928 16.20928,46 14,46 C11.79072,46 10,44.20928 10,42 C10,39.79072 11.79072,38 14,38 C16.20928,38 18,39.79072 18,42"/>
    <path fill="url(#d)" d="M27.7504 25L16.25008 25C16.11184 25 16 24.88816 16 24.7504L16 22.2496C16 22.11184 16.11184 22 16.25008 22L27.7504 22C27.88816 22 28 22.11184 28 22.2496L28 24.7504C28 24.88816 27.88816 25 27.7504 25M42.7504 25L31.25008 25C31.11184 25 31 24.88816 31 24.7504L31 22.2496C31 22.11184 31.11184 22 31.25008 22L42.7504 22C42.88816 22 43 22.11184 43 22.2496L43 24.7504C43 24.88816 42.88816 25 42.7504 25"/>
    <path fill="#0486DC" d="M38.7504,42 L36.25008,42 C36.11184,42 36,41.9005867 36,41.7781333 L36,34.2218667 C36,34.0994133 36.11184,34 36.25008,34 L38.7504,34 C38.88816,34 39,34.0994133 39,34.2218667 L39,41.7781333 C39,41.9005867 38.88816,42 38.7504,42"/>
    <path fill="#2154CF" d="M41,4 L6,4 L6,0.97216 C6,0.4352 6.34618182,0 6.77330909,0 L40.2266909,0 C40.6538182,0 41,0.4352 41,0.97216 L41,4 Z"/>
    <path fill="#FFFFFF" d="M8.25261422 3C7.70071405 3 7.25261422 2.55234043 7.25261422 1.99971631 7.25261422 1.44765957 7.70071405 1 8.25261422 1 8.8050816 1 9.25261422 1.44765957 9.25261422 1.99971631 9.25261422 2.55234043 8.8050816 3 8.25261422 3M11.3902593 3C10.8383592 3 10.3902593 2.55234043 10.3902593 1.99971631 10.3902593 1.44765957 10.8383592 1 11.3902593 1 11.9427267 1 12.3902593 1.44765957 12.3902593 1.99971631 12.3902593 2.55234043 11.9427267 3 11.3902593 3M14.5279546 3C13.9760545 3 13.5279546 2.55234043 13.5279546 1.99971631 13.5279546 1.44765957 13.9760545 1 14.5279546 1 15.080422 1 15.5279546 1.44765957 15.5279546 1.99971631 15.5279546 2.55234043 15.080422 3 14.5279546 3"/>
  </g>
</svg>
