<?xml version="1.0" encoding="UTF-8"?>
<svg width="60px" height="60px" viewBox="0 0 60 60" version="1.1" xmlns="http://www.w3.org/2000/svg" xmlns:xlink="http://www.w3.org/1999/xlink">
    <!-- Generator: Sketch 44.1 (41455) - http://www.bohemiancoding.com/sketch -->
    <title>top_rated_agency</title>
    <desc>Created with Sketch.</desc>
    <defs></defs>
    <g id="Symbols" stroke="none" stroke-width="1" fill="none" fill-rule="evenodd">
        <g id="top_rated_agency">
            <g>
                <path d="M0,1.99480087 C0,0.893102773 0.894730389,0 1.99630737,0 L58.0036926,0 C59.1062227,0 60,0.903267514 60,1.99480087 L60,37.6826185 C60,38.7843166 59.2609704,40.1931507 58.3597319,40.8220796 L31.1317935,59.8230817 C30.2258985,60.4552601 28.7625174,60.4414614 27.8639247,59.7927554 L1.62760072,40.8524059 C0.728701665,40.2034787 0,38.7741518 0,37.6826185 L0,1.99480087 Z" id="Rectangle-27" fill="#2EC8FF"></path>
                <path d="M30.0000003,14 C30.9632794,14 31.7441864,14.7876561 31.7441864,15.7592605 C31.7441864,16.7308648 30.9632794,17.5185209 30.0000003,17.5185209 C29.0367561,17.5185209 28.2558143,16.7308648 28.2558143,15.7592605 C28.2558143,14.7876561 29.0367561,14 30.0000003,14 Z M29.3241282,18.1232667 L29.3241282,18.1232667 C29.5400585,18.1870399 29.7647096,18.2222251 30.0000003,18.2222251 C30.2353259,18.2222251 30.4599422,18.1870469 30.6758725,18.1232667 L35.930233,25.6111261 L42.1329767,23.225122 C42.3586744,23.4527598 42.6321279,23.625118 42.9396976,23.7309094 L39.7674417,33.00002 L20.2325583,33.00002 L17.0603024,23.7309094 C17.3678721,23.625118 17.6413256,23.4527598 17.8670233,23.225122 L24.0697677,25.6111261 L29.3241282,18.1232667 Z M16.3953489,20.3333377 C17.1659652,20.3333377 17.7906977,20.9634625 17.7906977,21.740746 C17.7906977,22.5180295 17.1659652,23.1481544 16.3953489,23.1481544 C15.6247326,23.1481544 15,22.5180295 15,21.740746 C15,20.9634625 15.6247326,20.3333377 16.3953489,20.3333377 Z M43.6046511,20.3333377 C44.3752674,20.3333377 45,20.9634625 45,21.740746 C45,22.5180295 44.3752674,23.1481544 43.6046511,23.1481544 C42.8340348,23.1481544 42.2093023,22.5180295 42.2093023,21.740746 C42.2093023,20.9634625 42.8340348,20.3333377 43.6046511,20.3333377 Z" id="Combined-Shape" fill="#FFFFFF"></path>
            </g>
        </g>
    </g>
</svg>